<?xml version="1.0" encoding="UTF-8" standalone="no"?>
<!DOCTYPE svg PUBLIC "-//W3C//DTD SVG 1.1//EN"
 "http://www.w3.org/Graphics/SVG/1.1/DTD/svg11.dtd">
<!-- Generated by graphviz version 2.43.0 (0)
 -->
<!-- Title: main Pages: 1 -->
<svg width="523pt" height="156pt"
 viewBox="0.00 0.00 523.00 156.00" xmlns="http://www.w3.org/2000/svg" xmlns:xlink="http://www.w3.org/1999/xlink">
<g id="graph0" class="graph" transform="scale(1 1) rotate(0) translate(4 152)">
<title>main</title>
<!-- Node1 -->
<g id="Node000001" class="node">
<title>Node1</title>
<g id="a_Node000001"><a xlink:title="The driver function, which runs an infinite loop, to take input from the user and pass the input to t...">
<polygon fill="#999999" stroke="#666666" points="41,-111 0,-111 0,-92 41,-92 41,-111"/>
<text text-anchor="middle" x="20.5" y="-99" font-family="Helvetica,sans-Serif" font-size="10.00">main</text>
</a>
</g>
</g>
<!-- Node2 -->
<g id="Node000002" class="node">
<title>Node2</title>
<g id="a_Node000002"><a xlink:href="utils_8c.html#a9b632b4b25d9b0091d8747fed1e8ef55" target="_top" xlink:title="It tells the current working directory.">
<polygon fill="white" stroke="#666666" points="146.5,-148 93.5,-148 93.5,-129 146.5,-129 146.5,-148"/>
<text text-anchor="middle" x="120" y="-136" font-family="Helvetica,sans-Serif" font-size="10.00">Getcwd</text>
</a>
</g>
</g>
<!-- Node1&#45;&gt;Node2 -->
<g id="edge1_Node000001_Node000002" class="edge">
<title>Node1&#45;&gt;Node2</title>
<g id="a_edge1_Node000001_Node000002"><a xlink:title=" ">
<path fill="none" stroke="#63b8ff" d="M41.23,-108.99C53.53,-113.65 69.7,-119.79 84.11,-125.26"/>
<polygon fill="#63b8ff" stroke="#63b8ff" points="83.14,-128.64 93.73,-128.91 85.63,-122.09 83.14,-128.64"/>
</a>
</g>
</g>
<!-- Node3 -->
<g id="Node000003" class="node">
<title>Node3</title>
<g id="a_Node000003"><a xlink:href="main_8c.html#a8bfc90b3fb9344e9caafec953baacc0b" target="_top" xlink:title="A handler function to handle ctrl+c signal.">
<polygon fill="white" stroke="#666666" points="161,-111 79,-111 79,-92 161,-92 161,-111"/>
<text text-anchor="middle" x="120" y="-99" font-family="Helvetica,sans-Serif" font-size="10.00">handle_sigint</text>
</a>
</g>
</g>
<!-- Node1&#45;&gt;Node3 -->
<g id="edge2_Node000001_Node000003" class="edge">
<title>Node1&#45;&gt;Node3</title>
<g id="a_edge2_Node000001_Node000003"><a xlink:title=" ">
<path fill="none" stroke="#63b8ff" d="M41.23,-101.5C49.24,-101.5 58.9,-101.5 68.64,-101.5"/>
<polygon fill="#63b8ff" stroke="#63b8ff" points="68.76,-105 78.76,-101.5 68.76,-98 68.76,-105"/>
</a>
</g>
</g>
<!-- Node4 -->
<g id="Node000004" class="node">
<title>Node4</title>
<g id="a_Node000004"><a xlink:href="shell_8c.html#a27780512afe9d8efd2384904fbbc70fa" target="_top" xlink:title="Takes the raw command entered by the user and runs it.">
<polygon fill="white" stroke="#666666" points="163,-74 77,-74 77,-55 163,-55 163,-74"/>
<text text-anchor="middle" x="120" y="-62" font-family="Helvetica,sans-Serif" font-size="10.00">run_command</text>
</a>
</g>
</g>
<!-- Node1&#45;&gt;Node4 -->
<g id="edge3_Node000001_Node000004" class="edge">
<title>Node1&#45;&gt;Node4</title>
<g id="a_edge3_Node000001_Node000004"><a xlink:title=" ">
<path fill="none" stroke="#63b8ff" d="M41.23,-94.01C53.53,-89.35 69.7,-83.21 84.11,-77.74"/>
<polygon fill="#63b8ff" stroke="#63b8ff" points="85.63,-80.91 93.73,-74.09 83.14,-74.36 85.63,-80.91"/>
</a>
</g>
</g>
<!-- Node5 -->
<g id="Node000005" class="node">
<title>Node5</title>
<g id="a_Node000005"><a xlink:href="utils_8c.html#a0d6ec43109cc87bacb796aa7309d6db8" target="_top" xlink:title="It frees up memory taken up by args.">
<polygon fill="white" stroke="#666666" points="299.5,-130 232.5,-130 232.5,-111 299.5,-111 299.5,-130"/>
<text text-anchor="middle" x="266" y="-118" font-family="Helvetica,sans-Serif" font-size="10.00">free_mem</text>
</a>
</g>
</g>
<!-- Node4&#45;&gt;Node5 -->
<g id="edge4_Node000004_Node000005" class="edge">
<title>Node4&#45;&gt;Node5</title>
<g id="a_edge4_Node000004_Node000005"><a xlink:title=" ">
<path fill="none" stroke="#63b8ff" d="M142.92,-74.11C149.42,-77.04 156.53,-80.33 163,-83.5 179.25,-91.45 182.17,-95.86 199,-102.5 206.46,-105.44 214.57,-108.09 222.47,-110.38"/>
<polygon fill="#63b8ff" stroke="#63b8ff" points="221.74,-113.81 232.31,-113.1 223.61,-107.06 221.74,-113.81"/>
</a>
</g>
</g>
<!-- Node6 -->
<g id="Node000006" class="node">
<title>Node6</title>
<g id="a_Node000006"><a xlink:href="shell_8c.html#a7d5278c65a2d89f5fbda002a35928428" target="_top" xlink:title="Executes the command being made by create_command_for_pipe()">
<polygon fill="white" stroke="#666666" points="333,-93 199,-93 199,-74 333,-74 333,-93"/>
<text text-anchor="middle" x="266" y="-81" font-family="Helvetica,sans-Serif" font-size="10.00">pipe_command_handler</text>
</a>
</g>
</g>
<!-- Node4&#45;&gt;Node6 -->
<g id="edge5_Node000004_Node000006" class="edge">
<title>Node4&#45;&gt;Node6</title>
<g id="a_edge5_Node000004_Node000006"><a xlink:title=" ">
<path fill="none" stroke="#63b8ff" d="M163.04,-70.05C171.18,-71.12 179.95,-72.28 188.8,-73.45"/>
<polygon fill="#63b8ff" stroke="#63b8ff" points="188.42,-76.93 198.79,-74.76 189.34,-69.99 188.42,-76.93"/>
</a>
</g>
</g>
<!-- Node8 -->
<g id="Node000008" class="node">
<title>Node8</title>
<g id="a_Node000008"><a xlink:href="utils_8c.html#a381d2d6a780d31f8f912eaccc2df9889" target="_top" xlink:title="It generates token from the given input string and stores them in args;.">
<polygon fill="white" stroke="#666666" points="295,-56 237,-56 237,-37 295,-37 295,-56"/>
<text text-anchor="middle" x="266" y="-44" font-family="Helvetica,sans-Serif" font-size="10.00">tokenize</text>
</a>
</g>
</g>
<!-- Node4&#45;&gt;Node8 -->
<g id="edge7_Node000004_Node000008" class="edge">
<title>Node4&#45;&gt;Node8</title>
<g id="a_edge7_Node000004_Node000008"><a xlink:title=" ">
<path fill="none" stroke="#63b8ff" d="M163.04,-59.25C183.16,-56.73 207.09,-53.74 226.71,-51.29"/>
<polygon fill="#63b8ff" stroke="#63b8ff" points="227.33,-54.74 236.82,-50.02 226.46,-47.79 227.33,-54.74"/>
</a>
</g>
</g>
<!-- Node10 -->
<g id="Node000010" class="node">
<title>Node10</title>
<g id="a_Node000010"><a xlink:href="utils_8c.html#a0268c75a0ce2925365247fb5840392d2" target="_top" xlink:title="It removes all types of white spaces and newline characters from the beginning and ending of the give...">
<polygon fill="white" stroke="#666666" points="284.5,-19 247.5,-19 247.5,0 284.5,0 284.5,-19"/>
<text text-anchor="middle" x="266" y="-7" font-family="Helvetica,sans-Serif" font-size="10.00">trim</text>
</a>
</g>
</g>
<!-- Node4&#45;&gt;Node10 -->
<g id="edge9_Node000004_Node000010" class="edge">
<title>Node4&#45;&gt;Node10</title>
<g id="a_edge9_Node000004_Node000010"><a xlink:title=" ">
<path fill="none" stroke="#63b8ff" d="M139.57,-54.95C155.17,-47.18 178.17,-36.25 199,-28.5 211.45,-23.87 225.55,-19.67 237.52,-16.4"/>
<polygon fill="#63b8ff" stroke="#63b8ff" points="238.63,-19.73 247.4,-13.79 236.83,-12.97 238.63,-19.73"/>
</a>
</g>
</g>
<!-- Node7 -->
<g id="Node000007" class="node">
<title>Node7</title>
<g id="a_Node000007"><a xlink:href="shell_8c.html#aa36f73a456b07e134fc6439d798511cc" target="_top" xlink:title="Creates a command for the pipeline operator (|) from the provided arguments.">
<polygon fill="white" stroke="#666666" points="515,-93 369,-93 369,-74 515,-74 515,-93"/>
<text text-anchor="middle" x="442" y="-81" font-family="Helvetica,sans-Serif" font-size="10.00">create_command_for_pipe</text>
</a>
</g>
</g>
<!-- Node6&#45;&gt;Node7 -->
<g id="edge6_Node000006_Node000007" class="edge">
<title>Node6&#45;&gt;Node7</title>
<g id="a_edge6_Node000006_Node000007"><a xlink:title=" ">
<path fill="none" stroke="#63b8ff" d="M333.28,-83.5C341.63,-83.5 350.25,-83.5 358.81,-83.5"/>
<polygon fill="#63b8ff" stroke="#63b8ff" points="358.82,-87 368.82,-83.5 358.82,-80 358.82,-87"/>
</a>
</g>
</g>
<!-- Node9 -->
<g id="Node000009" class="node">
<title>Node9</title>
<g id="a_Node000009"><a xlink:href="utils_8c.html#a8701968ceb20a387aa8bfc7d411f6e07" target="_top" xlink:title="It tells whether the given character is a space/newline/tab.">
<polygon fill="white" stroke="#666666" points="471.5,-38 412.5,-38 412.5,-19 471.5,-19 471.5,-38"/>
<text text-anchor="middle" x="442" y="-26" font-family="Helvetica,sans-Serif" font-size="10.00">is_space</text>
</a>
</g>
</g>
<!-- Node8&#45;&gt;Node9 -->
<g id="edge8_Node000008_Node000009" class="edge">
<title>Node8&#45;&gt;Node9</title>
<g id="a_edge8_Node000008_Node000009"><a xlink:title=" ">
<path fill="none" stroke="#63b8ff" d="M295.34,-43.57C324.45,-40.56 369.96,-35.85 402.36,-32.5"/>
<polygon fill="#63b8ff" stroke="#63b8ff" points="402.79,-35.97 412.38,-31.46 402.07,-29.01 402.79,-35.97"/>
</a>
</g>
</g>
<!-- Node10&#45;&gt;Node9 -->
<g id="edge10_Node000010_Node000009" class="edge">
<title>Node10&#45;&gt;Node9</title>
<g id="a_edge10_Node000010_Node000009"><a xlink:title=" ">
<path fill="none" stroke="#63b8ff" d="M284.64,-11.43C312.01,-14.41 365.35,-20.24 402.06,-24.25"/>
<polygon fill="#63b8ff" stroke="#63b8ff" points="402.08,-27.77 412.4,-25.38 402.84,-20.81 402.08,-27.77"/>
</a>
</g>
</g>
</g>
</svg>
