<?xml version="1.0" encoding="UTF-8" standalone="no"?>
<!DOCTYPE svg PUBLIC "-//W3C//DTD SVG 1.1//EN"
 "http://www.w3.org/Graphics/SVG/1.1/DTD/svg11.dtd">
<!-- Generated by graphviz version 2.43.0 (0)
 -->
<!-- Title: run_command Pages: 1 -->
<svg width="446pt" height="138pt"
 viewBox="0.00 0.00 446.00 138.00" xmlns="http://www.w3.org/2000/svg" xmlns:xlink="http://www.w3.org/1999/xlink">
<g id="graph0" class="graph" transform="scale(1 1) rotate(0) translate(4 134)">
<title>run_command</title>
<!-- Node1 -->
<g id="Node000001" class="node">
<title>Node1</title>
<g id="a_Node000001"><a xlink:title="Runs the command being provided to it by the user.">
<polygon fill="#999999" stroke="#666666" points="86,-74 0,-74 0,-55 86,-55 86,-74"/>
<text text-anchor="middle" x="43" y="-62" font-family="Helvetica,sans-Serif" font-size="10.00">run_command</text>
</a>
</g>
</g>
<!-- Node2 -->
<g id="Node000002" class="node">
<title>Node2</title>
<g id="a_Node000002"><a xlink:href="utils_8c.html#a0d6ec43109cc87bacb796aa7309d6db8" target="_top" xlink:title="It frees up memory taken up by args.">
<polygon fill="white" stroke="#666666" points="222.5,-130 155.5,-130 155.5,-111 222.5,-111 222.5,-130"/>
<text text-anchor="middle" x="189" y="-118" font-family="Helvetica,sans-Serif" font-size="10.00">free_mem</text>
</a>
</g>
</g>
<!-- Node1&#45;&gt;Node2 -->
<g id="edge1_Node000001_Node000002" class="edge">
<title>Node1&#45;&gt;Node2</title>
<g id="a_edge1_Node000001_Node000002"><a xlink:title=" ">
<path fill="none" stroke="#63b8ff" d="M61.24,-74.06C76.78,-82.4 100.43,-94.39 122,-102.5 129.5,-105.32 137.64,-107.91 145.55,-110.19"/>
<polygon fill="#63b8ff" stroke="#63b8ff" points="144.82,-113.61 155.39,-112.9 146.68,-106.87 144.82,-113.61"/>
</a>
</g>
</g>
<!-- Node3 -->
<g id="Node000003" class="node">
<title>Node3</title>
<g id="a_Node000003"><a xlink:href="shell_8c.html#a7d5278c65a2d89f5fbda002a35928428" target="_top" xlink:title="Executes the command being made by create_command_for_pipe()">
<polygon fill="white" stroke="#666666" points="256,-93 122,-93 122,-74 256,-74 256,-93"/>
<text text-anchor="middle" x="189" y="-81" font-family="Helvetica,sans-Serif" font-size="10.00">pipe_command_handler</text>
</a>
</g>
</g>
<!-- Node1&#45;&gt;Node3 -->
<g id="edge2_Node000001_Node000003" class="edge">
<title>Node1&#45;&gt;Node3</title>
<g id="a_edge2_Node000001_Node000003"><a xlink:title=" ">
<path fill="none" stroke="#63b8ff" d="M86.04,-70.05C94.18,-71.12 102.95,-72.28 111.8,-73.45"/>
<polygon fill="#63b8ff" stroke="#63b8ff" points="111.42,-76.93 121.79,-74.76 112.34,-69.99 111.42,-76.93"/>
</a>
</g>
</g>
<!-- Node5 -->
<g id="Node000005" class="node">
<title>Node5</title>
<g id="a_Node000005"><a xlink:href="utils_8c.html#a381d2d6a780d31f8f912eaccc2df9889" target="_top" xlink:title="It generates token from the given input string and stores them in args;.">
<polygon fill="white" stroke="#666666" points="218,-56 160,-56 160,-37 218,-37 218,-56"/>
<text text-anchor="middle" x="189" y="-44" font-family="Helvetica,sans-Serif" font-size="10.00">tokenize</text>
</a>
</g>
</g>
<!-- Node1&#45;&gt;Node5 -->
<g id="edge4_Node000001_Node000005" class="edge">
<title>Node1&#45;&gt;Node5</title>
<g id="a_edge4_Node000001_Node000005"><a xlink:title=" ">
<path fill="none" stroke="#63b8ff" d="M86.04,-59.25C106.16,-56.73 130.09,-53.74 149.71,-51.29"/>
<polygon fill="#63b8ff" stroke="#63b8ff" points="150.33,-54.74 159.82,-50.02 149.46,-47.79 150.33,-54.74"/>
</a>
</g>
</g>
<!-- Node7 -->
<g id="Node000007" class="node">
<title>Node7</title>
<g id="a_Node000007"><a xlink:href="utils_8c.html#a0268c75a0ce2925365247fb5840392d2" target="_top" xlink:title="It removes all types of white spaces and newline characters from the beginning and ending of the give...">
<polygon fill="white" stroke="#666666" points="207.5,-19 170.5,-19 170.5,0 207.5,0 207.5,-19"/>
<text text-anchor="middle" x="189" y="-7" font-family="Helvetica,sans-Serif" font-size="10.00">trim</text>
</a>
</g>
</g>
<!-- Node1&#45;&gt;Node7 -->
<g id="edge6_Node000001_Node000007" class="edge">
<title>Node1&#45;&gt;Node7</title>
<g id="a_edge6_Node000001_Node000007"><a xlink:title=" ">
<path fill="none" stroke="#63b8ff" d="M62.57,-54.95C78.17,-47.18 101.17,-36.25 122,-28.5 134.45,-23.87 148.55,-19.67 160.52,-16.4"/>
<polygon fill="#63b8ff" stroke="#63b8ff" points="161.63,-19.73 170.4,-13.79 159.83,-12.97 161.63,-19.73"/>
</a>
</g>
</g>
<!-- Node4 -->
<g id="Node000004" class="node">
<title>Node4</title>
<g id="a_Node000004"><a xlink:href="shell_8c.html#aa36f73a456b07e134fc6439d798511cc" target="_top" xlink:title="Creates a command for the pipeline operator (|) from the provided arguments.">
<polygon fill="white" stroke="#666666" points="438,-93 292,-93 292,-74 438,-74 438,-93"/>
<text text-anchor="middle" x="365" y="-81" font-family="Helvetica,sans-Serif" font-size="10.00">create_command_for_pipe</text>
</a>
</g>
</g>
<!-- Node3&#45;&gt;Node4 -->
<g id="edge3_Node000003_Node000004" class="edge">
<title>Node3&#45;&gt;Node4</title>
<g id="a_edge3_Node000003_Node000004"><a xlink:title=" ">
<path fill="none" stroke="#63b8ff" d="M256.28,-83.5C264.63,-83.5 273.25,-83.5 281.81,-83.5"/>
<polygon fill="#63b8ff" stroke="#63b8ff" points="281.82,-87 291.82,-83.5 281.82,-80 281.82,-87"/>
</a>
</g>
</g>
<!-- Node6 -->
<g id="Node000006" class="node">
<title>Node6</title>
<g id="a_Node000006"><a xlink:href="utils_8c.html#a8701968ceb20a387aa8bfc7d411f6e07" target="_top" xlink:title="It tells whether the given character is a space/newline/tab.">
<polygon fill="white" stroke="#666666" points="394.5,-38 335.5,-38 335.5,-19 394.5,-19 394.5,-38"/>
<text text-anchor="middle" x="365" y="-26" font-family="Helvetica,sans-Serif" font-size="10.00">is_space</text>
</a>
</g>
</g>
<!-- Node5&#45;&gt;Node6 -->
<g id="edge5_Node000005_Node000006" class="edge">
<title>Node5&#45;&gt;Node6</title>
<g id="a_edge5_Node000005_Node000006"><a xlink:title=" ">
<path fill="none" stroke="#63b8ff" d="M218.34,-43.57C247.45,-40.56 292.96,-35.85 325.36,-32.5"/>
<polygon fill="#63b8ff" stroke="#63b8ff" points="325.79,-35.97 335.38,-31.46 325.07,-29.01 325.79,-35.97"/>
</a>
</g>
</g>
<!-- Node7&#45;&gt;Node6 -->
<g id="edge7_Node000007_Node000006" class="edge">
<title>Node7&#45;&gt;Node6</title>
<g id="a_edge7_Node000007_Node000006"><a xlink:title=" ">
<path fill="none" stroke="#63b8ff" d="M207.64,-11.43C235.01,-14.41 288.35,-20.24 325.06,-24.25"/>
<polygon fill="#63b8ff" stroke="#63b8ff" points="325.08,-27.77 335.4,-25.38 325.84,-20.81 325.08,-27.77"/>
</a>
</g>
</g>
</g>
</svg>
