<?xml version="1.0" encoding="UTF-8" standalone="no"?>
<!DOCTYPE svg PUBLIC "-//W3C//DTD SVG 1.1//EN"
 "http://www.w3.org/Graphics/SVG/1.1/DTD/svg11.dtd">
<!-- Generated by graphviz version 2.43.0 (0)
 -->
<!-- Title: shell.c Pages: 1 -->
<svg width="630pt" height="82pt"
 viewBox="0.00 0.00 629.50 82.00" xmlns="http://www.w3.org/2000/svg" xmlns:xlink="http://www.w3.org/1999/xlink">
<g id="graph0" class="graph" transform="scale(1 1) rotate(0) translate(4 78)">
<title>shell.c</title>
<!-- Node1 -->
<g id="Node000001" class="node">
<title>Node1</title>
<g id="a_Node000001"><a xlink:title="This file contains the definitions of functions in shell.h file, and also include two helper function...">
<polygon fill="#999999" stroke="#666666" points="342,-74 294,-74 294,-55 342,-55 342,-74"/>
<text text-anchor="middle" x="318" y="-62" font-family="Helvetica,sans-Serif" font-size="10.00">shell.c</text>
</a>
</g>
</g>
<!-- Node2 -->
<g id="Node000002" class="node">
<title>Node2</title>
<g id="a_Node000002"><a xlink:title=" ">
<polygon fill="#e0e0e0" stroke="#999999" points="50,-19 0,-19 0,0 50,0 50,-19"/>
<text text-anchor="middle" x="25" y="-7" font-family="Helvetica,sans-Serif" font-size="10.00">stdio.h</text>
</a>
</g>
</g>
<!-- Node1&#45;&gt;Node2 -->
<g id="edge1_Node000001_Node000002" class="edge">
<title>Node1&#45;&gt;Node2</title>
<g id="a_edge1_Node000001_Node000002"><a xlink:title=" ">
<path fill="none" stroke="#63b8ff" d="M293.96,-59.99C249.7,-53.38 152.12,-38.22 60.22,-19.13"/>
<polygon fill="#63b8ff" stroke="#63b8ff" points="60.71,-15.65 50.2,-17.02 59.27,-22.5 60.71,-15.65"/>
</a>
</g>
</g>
<!-- Node3 -->
<g id="Node000003" class="node">
<title>Node3</title>
<g id="a_Node000003"><a xlink:title=" ">
<polygon fill="#e0e0e0" stroke="#999999" points="121.5,-19 68.5,-19 68.5,0 121.5,0 121.5,-19"/>
<text text-anchor="middle" x="95" y="-7" font-family="Helvetica,sans-Serif" font-size="10.00">stdlib.h</text>
</a>
</g>
</g>
<!-- Node1&#45;&gt;Node3 -->
<g id="edge2_Node000001_Node000003" class="edge">
<title>Node1&#45;&gt;Node3</title>
<g id="a_edge2_Node000001_Node000003"><a xlink:title=" ">
<path fill="none" stroke="#63b8ff" d="M293.95,-57.85C259.93,-49.86 195.56,-34.69 131.59,-19.37"/>
<polygon fill="#63b8ff" stroke="#63b8ff" points="132.29,-15.94 121.75,-17.01 130.66,-22.75 132.29,-15.94"/>
</a>
</g>
</g>
<!-- Node4 -->
<g id="Node000004" class="node">
<title>Node4</title>
<g id="a_Node000004"><a xlink:title=" ">
<polygon fill="#e0e0e0" stroke="#999999" points="192.5,-19 139.5,-19 139.5,0 192.5,0 192.5,-19"/>
<text text-anchor="middle" x="166" y="-7" font-family="Helvetica,sans-Serif" font-size="10.00">string.h</text>
</a>
</g>
</g>
<!-- Node1&#45;&gt;Node4 -->
<g id="edge3_Node000001_Node000004" class="edge">
<title>Node1&#45;&gt;Node4</title>
<g id="a_edge3_Node000001_Node000004"><a xlink:title=" ">
<path fill="none" stroke="#63b8ff" d="M293.92,-55.1C268.61,-46.28 228.58,-32.32 200.05,-22.37"/>
<polygon fill="#63b8ff" stroke="#63b8ff" points="201.07,-19.02 190.48,-19.03 198.77,-25.63 201.07,-19.02"/>
</a>
</g>
</g>
<!-- Node5 -->
<g id="Node000005" class="node">
<title>Node5</title>
<g id="a_Node000005"><a xlink:title=" ">
<polygon fill="#e0e0e0" stroke="#999999" points="267,-19 211,-19 211,0 267,0 267,-19"/>
<text text-anchor="middle" x="239" y="-7" font-family="Helvetica,sans-Serif" font-size="10.00">unistd.h</text>
</a>
</g>
</g>
<!-- Node1&#45;&gt;Node5 -->
<g id="edge4_Node000001_Node000005" class="edge">
<title>Node1&#45;&gt;Node5</title>
<g id="a_edge4_Node000001_Node000005"><a xlink:title=" ">
<path fill="none" stroke="#63b8ff" d="M305.31,-54.98C293.17,-46.84 274.64,-34.41 260.25,-24.76"/>
<polygon fill="#63b8ff" stroke="#63b8ff" points="262.18,-21.84 251.92,-19.17 258.28,-27.65 262.18,-21.84"/>
</a>
</g>
</g>
<!-- Node6 -->
<g id="Node000006" class="node">
<title>Node6</title>
<g id="a_Node000006"><a xlink:title=" ">
<polygon fill="#e0e0e0" stroke="#999999" points="351,-19 285,-19 285,0 351,0 351,-19"/>
<text text-anchor="middle" x="318" y="-7" font-family="Helvetica,sans-Serif" font-size="10.00">sys/wait.h</text>
</a>
</g>
</g>
<!-- Node1&#45;&gt;Node6 -->
<g id="edge5_Node000001_Node000006" class="edge">
<title>Node1&#45;&gt;Node6</title>
<g id="a_edge5_Node000001_Node000006"><a xlink:title=" ">
<path fill="none" stroke="#63b8ff" d="M318,-54.75C318,-47.8 318,-37.85 318,-29.13"/>
<polygon fill="#63b8ff" stroke="#63b8ff" points="321.5,-29.09 318,-19.09 314.5,-29.09 321.5,-29.09"/>
</a>
</g>
</g>
<!-- Node7 -->
<g id="Node000007" class="node">
<title>Node7</title>
<g id="a_Node000007"><a xlink:title=" ">
<polygon fill="#e0e0e0" stroke="#999999" points="416.5,-19 369.5,-19 369.5,0 416.5,0 416.5,-19"/>
<text text-anchor="middle" x="393" y="-7" font-family="Helvetica,sans-Serif" font-size="10.00">fcntl.h</text>
</a>
</g>
</g>
<!-- Node1&#45;&gt;Node7 -->
<g id="edge6_Node000001_Node000007" class="edge">
<title>Node1&#45;&gt;Node7</title>
<g id="a_edge6_Node000001_Node000007"><a xlink:title=" ">
<path fill="none" stroke="#63b8ff" d="M330.05,-54.98C341.46,-46.92 358.83,-34.65 372.43,-25.03"/>
<polygon fill="#63b8ff" stroke="#63b8ff" points="374.58,-27.8 380.73,-19.17 370.54,-22.08 374.58,-27.8"/>
</a>
</g>
</g>
<!-- Node8 -->
<g id="Node000008" class="node">
<title>Node8</title>
<g id="a_Node000008"><a xlink:href="shell_8h.html" target="_top" xlink:title="This file contains the declarations of functions for implementing the custom shell.">
<polygon fill="white" stroke="#666666" points="483.5,-19 434.5,-19 434.5,0 483.5,0 483.5,-19"/>
<text text-anchor="middle" x="459" y="-7" font-family="Helvetica,sans-Serif" font-size="10.00">shell.h</text>
</a>
</g>
</g>
<!-- Node1&#45;&gt;Node8 -->
<g id="edge7_Node000001_Node000008" class="edge">
<title>Node1&#45;&gt;Node8</title>
<g id="a_edge7_Node000001_Node000008"><a xlink:title=" ">
<path fill="none" stroke="#63b8ff" d="M340.65,-54.98C363.85,-46.27 400.12,-32.63 426.4,-22.75"/>
<polygon fill="#63b8ff" stroke="#63b8ff" points="427.8,-25.97 435.93,-19.17 425.34,-19.41 427.8,-25.97"/>
</a>
</g>
</g>
<!-- Node9 -->
<g id="Node000009" class="node">
<title>Node9</title>
<g id="a_Node000009"><a xlink:href="utils_8h.html" target="_top" xlink:title="Contains all utility functions to help shell operations.">
<polygon fill="white" stroke="#666666" points="548.5,-19 501.5,-19 501.5,0 548.5,0 548.5,-19"/>
<text text-anchor="middle" x="525" y="-7" font-family="Helvetica,sans-Serif" font-size="10.00">utils.h</text>
</a>
</g>
</g>
<!-- Node1&#45;&gt;Node9 -->
<g id="edge8_Node000001_Node000009" class="edge">
<title>Node1&#45;&gt;Node9</title>
<g id="a_edge8_Node000001_Node000009"><a xlink:title=" ">
<path fill="none" stroke="#63b8ff" d="M342.08,-57.46C374.06,-49.43 432.55,-34.66 491.41,-19.39"/>
<polygon fill="#63b8ff" stroke="#63b8ff" points="492.44,-22.74 501.24,-16.84 490.68,-15.97 492.44,-22.74"/>
</a>
</g>
</g>
<!-- Node10 -->
<g id="Node000010" class="node">
<title>Node10</title>
<g id="a_Node000010"><a xlink:href="colors_8h.html" target="_top" xlink:title="Contains all ANSI escape codes for different colors.">
<polygon fill="white" stroke="#666666" points="621.5,-19 566.5,-19 566.5,0 621.5,0 621.5,-19"/>
<text text-anchor="middle" x="594" y="-7" font-family="Helvetica,sans-Serif" font-size="10.00">colors.h</text>
</a>
</g>
</g>
<!-- Node1&#45;&gt;Node10 -->
<g id="edge9_Node000001_Node000010" class="edge">
<title>Node1&#45;&gt;Node10</title>
<g id="a_edge9_Node000001_Node000010"><a xlink:title=" ">
<path fill="none" stroke="#63b8ff" d="M342.26,-59.4C384.01,-52.27 472.35,-36.79 556.19,-19.31"/>
<polygon fill="#63b8ff" stroke="#63b8ff" points="557.05,-22.7 566.12,-17.22 555.62,-15.85 557.05,-22.7"/>
</a>
</g>
</g>
</g>
</svg>
