<?xml version="1.0" encoding="UTF-8" standalone="no"?>
<!DOCTYPE svg PUBLIC "-//W3C//DTD SVG 1.1//EN"
 "http://www.w3.org/Graphics/SVG/1.1/DTD/svg11.dtd">
<!-- Generated by graphviz version 2.43.0 (0)
 -->
<!-- Title: is_space Pages: 1 -->
<svg width="360pt" height="64pt"
 viewBox="0.00 0.00 360.00 64.00" xmlns="http://www.w3.org/2000/svg" xmlns:xlink="http://www.w3.org/1999/xlink">
<g id="graph0" class="graph" transform="scale(1 1) rotate(0) translate(4 60)">
<title>is_space</title>
<!-- Node1 -->
<g id="Node000001" class="node">
<title>Node1</title>
<g id="a_Node000001"><a xlink:title="It tells whether the given character is a space/newline/tab.">
<polygon fill="#999999" stroke="#666666" points="352,-37 293,-37 293,-18 352,-18 352,-37"/>
<text text-anchor="middle" x="322.5" y="-25" font-family="Helvetica,sans-Serif" font-size="10.00">is_space</text>
</a>
</g>
</g>
<!-- Node2 -->
<g id="Node000002" class="node">
<title>Node2</title>
<g id="a_Node000002"><a xlink:href="utils_8c.html#a381d2d6a780d31f8f912eaccc2df9889" target="_top" xlink:title="It generates token from the given input string and stores them in args;.">
<polygon fill="white" stroke="#666666" points="257,-56 199,-56 199,-37 257,-37 257,-56"/>
<text text-anchor="middle" x="228" y="-44" font-family="Helvetica,sans-Serif" font-size="10.00">tokenize</text>
</a>
</g>
</g>
<!-- Node1&#45;&gt;Node2 -->
<g id="edge1_Node000001_Node000002" class="edge">
<title>Node1&#45;&gt;Node2</title>
<g id="a_edge1_Node000001_Node000002"><a xlink:title=" ">
<path fill="none" stroke="#63b8ff" d="M283.08,-35.39C274.43,-37.17 265.4,-39.02 257.25,-40.7"/>
<polygon fill="#63b8ff" stroke="#63b8ff" points="283.9,-38.8 292.99,-33.36 282.49,-31.94 283.9,-38.8"/>
</a>
</g>
</g>
<!-- Node5 -->
<g id="Node000005" class="node">
<title>Node5</title>
<g id="a_Node000005"><a xlink:href="utils_8c.html#a0268c75a0ce2925365247fb5840392d2" target="_top" xlink:title="It removes all types of white spaces and newline characters from the beginning and ending of the give...">
<polygon fill="white" stroke="#666666" points="246.5,-19 209.5,-19 209.5,0 246.5,0 246.5,-19"/>
<text text-anchor="middle" x="228" y="-7" font-family="Helvetica,sans-Serif" font-size="10.00">trim</text>
</a>
</g>
</g>
<!-- Node1&#45;&gt;Node5 -->
<g id="edge4_Node000001_Node000005" class="edge">
<title>Node1&#45;&gt;Node5</title>
<g id="a_edge4_Node000001_Node000005"><a xlink:title=" ">
<path fill="none" stroke="#63b8ff" d="M283.06,-20.02C270.36,-17.55 256.86,-14.92 246.52,-12.91"/>
<polygon fill="#63b8ff" stroke="#63b8ff" points="282.51,-23.48 292.99,-21.95 283.84,-16.61 282.51,-23.48"/>
</a>
</g>
</g>
<!-- Node3 -->
<g id="Node000003" class="node">
<title>Node3</title>
<g id="a_Node000003"><a xlink:href="shell_8c.html#a27780512afe9d8efd2384904fbbc70fa" target="_top" xlink:title="Takes the raw command entered by the user and runs it.">
<polygon fill="white" stroke="#666666" points="163,-37 77,-37 77,-18 163,-18 163,-37"/>
<text text-anchor="middle" x="120" y="-25" font-family="Helvetica,sans-Serif" font-size="10.00">run_command</text>
</a>
</g>
</g>
<!-- Node2&#45;&gt;Node3 -->
<g id="edge2_Node000002_Node000003" class="edge">
<title>Node2&#45;&gt;Node3</title>
<g id="a_edge2_Node000002_Node000003"><a xlink:title=" ">
<path fill="none" stroke="#63b8ff" d="M189.01,-39.69C180.65,-38.19 171.76,-36.6 163.24,-35.07"/>
<polygon fill="#63b8ff" stroke="#63b8ff" points="188.41,-43.14 198.87,-41.46 189.65,-36.25 188.41,-43.14"/>
</a>
</g>
</g>
<!-- Node4 -->
<g id="Node000004" class="node">
<title>Node4</title>
<g id="a_Node000004"><a xlink:href="main_8c.html#a0ddf1224851353fc92bfbff6f499fa97" target="_top" xlink:title="The driver function, which runs an infinite loop, to take input from the user and pass the input to t...">
<polygon fill="white" stroke="#666666" points="41,-37 0,-37 0,-18 41,-18 41,-37"/>
<text text-anchor="middle" x="20.5" y="-25" font-family="Helvetica,sans-Serif" font-size="10.00">main</text>
</a>
</g>
</g>
<!-- Node3&#45;&gt;Node4 -->
<g id="edge3_Node000003_Node000004" class="edge">
<title>Node3&#45;&gt;Node4</title>
<g id="a_edge3_Node000003_Node000004"><a xlink:title=" ">
<path fill="none" stroke="#63b8ff" d="M66.52,-27.5C57.42,-27.5 48.5,-27.5 41.03,-27.5"/>
<polygon fill="#63b8ff" stroke="#63b8ff" points="66.8,-31 76.8,-27.5 66.8,-24 66.8,-31"/>
</a>
</g>
</g>
<!-- Node5&#45;&gt;Node3 -->
<g id="edge5_Node000005_Node000003" class="edge">
<title>Node5&#45;&gt;Node3</title>
<g id="a_edge5_Node000005_Node000003"><a xlink:title=" ">
<path fill="none" stroke="#63b8ff" d="M199.57,-14.16C188.51,-16.04 175.48,-18.25 163.25,-20.33"/>
<polygon fill="#63b8ff" stroke="#63b8ff" points="200.22,-17.6 209.5,-12.47 199.05,-10.7 200.22,-17.6"/>
</a>
</g>
</g>
</g>
</svg>
